<?xml version="1.0" standalone="no"?>
<!DOCTYPE svg PUBLIC "-//W3C//DTD SVG 20010904//EN"
 "http://www.w3.org/TR/2001/REC-SVG-20010904/DTD/svg10.dtd">
<svg version="1.0" xmlns="http://www.w3.org/2000/svg"
 width="1378.000000pt" height="1378.000000pt" viewBox="0 0 1378.000000 1378.000000"
 preserveAspectRatio="xMidYMid meet">
<metadata>
Created by potrace 1.14, written by Peter Selinger 2001-2017
</metadata>
<g transform="translate(0.000000,1378.000000) scale(0.100000,-0.100000)"
fill="#000000" stroke="none">
<path d="M3965 13061 c-28 -15 -126 -72 -220 -126 -93 -54 -244 -141 -335
-193 -91 -52 -198 -115 -238 -139 -41 -24 -76 -43 -79 -43 -3 0 -17 -8 -31
-19 -15 -10 -47 -29 -72 -43 -86 -48 -119 -67 -159 -92 -22 -15 -43 -26 -45
-26 -3 0 -29 -14 -58 -32 -29 -17 -96 -56 -148 -86 -52 -30 -110 -63 -127 -73
-202 -117 -184 -109 -213 -94 -25 13 -34 10 -166 -67 -76 -44 -157 -90 -179
-103 -22 -12 -80 -46 -130 -75 -86 -51 -184 -107 -259 -150 -74 -42 -461 -266
-516 -299 -19 -11 -52 -30 -72 -41 -28 -15 -37 -27 -40 -51 -3 -29 -15 -38
-179 -133 -97 -55 -183 -107 -192 -114 -14 -12 -16 -50 -16 -297 l1 -283 -246
-491 c-245 -489 -246 -491 -223 -505 12 -8 78 -46 147 -86 69 -40 143 -83 165
-96 22 -13 66 -38 98 -56 52 -30 57 -36 57 -68 1 -19 2 -681 3 -1470 l2 -1434
55 -33 c30 -18 64 -37 75 -42 11 -6 43 -24 70 -40 28 -16 73 -42 100 -56 28
-15 57 -32 65 -39 8 -6 24 -16 35 -22 11 -6 89 -50 173 -98 149 -86 152 -89
137 -110 -34 -48 -66 -120 -81 -183 -15 -65 -21 -240 -9 -293 3 -14 8 -41 11
-60 34 -191 151 -448 279 -615 211 -276 477 -436 684 -414 73 8 113 23 193 72
26 15 65 38 86 50 22 12 79 45 127 72 47 28 111 64 141 81 113 63 181 159 209
291 8 36 15 66 17 68 2 2 45 -21 97 -51 52 -30 98 -54 102 -54 5 0 9 -4 9 -10
0 -5 4 -10 10 -10 5 0 31 -13 58 -29 26 -15 68 -40 93 -53 86 -48 94 -53 99
-59 3 -4 32 -21 65 -38 33 -18 76 -42 95 -53 61 -35 613 -355 650 -375 19 -11
103 -60 185 -108 83 -48 168 -97 190 -110 22 -12 56 -32 75 -44 19 -11 42 -24
50 -28 8 -3 59 -33 113 -65 54 -32 100 -58 103 -58 3 0 18 -8 32 -19 15 -10
52 -32 82 -49 59 -32 239 -136 413 -238 60 -35 111 -64 114 -64 3 0 17 -8 31
-18 15 -11 54 -34 87 -52 70 -39 146 -82 195 -112 19 -12 53 -31 75 -43 22
-13 150 -86 284 -164 134 -77 248 -141 253 -141 4 0 8 -4 8 -10 0 -5 5 -10 11
-10 9 0 155 -83 299 -170 25 -14 88 -51 140 -80 52 -29 106 -63 120 -75 14
-12 59 -42 100 -65 41 -24 77 -44 79 -46 1 -1 -6 -13 -18 -25 -31 -34 -78
-138 -91 -203 -13 -66 -16 -207 -6 -278 40 -283 201 -601 411 -814 174 -176
343 -271 499 -279 96 -5 147 10 261 74 138 79 310 180 372 218 117 71 176 170
199 333 2 18 6 35 7 36 3 4 72 -29 88 -42 8 -6 39 -25 69 -41 30 -17 143 -81
250 -143 107 -63 226 -131 264 -152 38 -21 74 -42 80 -47 6 -4 32 -20 58 -34
25 -14 159 -91 297 -171 l251 -146 198 114 c108 62 256 147 329 189 72 42 149
86 170 98 21 12 52 30 68 40 17 10 41 24 55 32 14 7 144 82 290 166 146 85
268 155 272 157 3 2 5 -9 4 -25 -2 -24 4 -33 34 -50 l35 -20 74 45 c40 24 75
44 76 44 4 0 443 254 615 355 30 18 101 59 158 91 338 193 326 185 327 227 1
20 3 39 6 41 2 2 76 46 164 96 189 109 217 129 256 184 28 37 49 52 204 140
140 80 185 110 185 124 1 10 1 182 2 383 l0 366 43 25 43 26 0 262 0 262 -36
21 c-20 12 -40 21 -43 20 -4 -1 -7 224 -7 501 0 277 -3 514 -7 527 -4 13 -13
38 -20 54 -7 17 -41 102 -75 190 -34 88 -78 201 -97 250 -66 171 -105 270
-113 290 -5 11 -46 115 -90 230 -45 116 -106 272 -136 348 -30 76 -54 140 -54
143 0 3 -8 24 -19 47 -10 23 -60 150 -111 282 -50 132 -98 254 -105 270 -7 17
-32 80 -55 140 -23 61 -47 124 -54 140 -8 17 -43 107 -79 200 -37 94 -93 240
-127 326 -44 114 -66 159 -83 168 -12 6 -44 25 -72 42 -27 16 -58 33 -67 36
-10 3 -18 9 -18 13 0 4 -8 10 -17 14 -10 3 -40 19 -68 35 -27 17 -61 36 -75
44 -36 20 -66 37 -361 207 -145 84 -280 162 -299 173 -19 10 -87 50 -150 87
-91 53 -494 286 -690 398 -131 75 -267 154 -280 163 -8 5 -27 15 -42 22 -16 6
-28 15 -28 19 0 4 -4 8 -8 8 -5 0 -119 64 -253 141 -134 78 -264 153 -289 167
-25 14 -78 45 -118 69 -41 24 -76 43 -78 43 -3 0 -30 16 -61 36 -31 19 -65 40
-77 45 -20 9 -33 16 -86 50 -14 9 -46 28 -72 43 -99 55 -140 78 -250 142 -62
37 -138 80 -168 97 -30 17 -79 45 -108 64 -29 18 -56 33 -60 33 -4 0 -23 11
-42 23 -19 13 -60 37 -90 54 -30 17 -212 122 -405 233 -192 112 -370 214 -395
228 -25 13 -49 28 -55 32 -5 4 -26 17 -45 27 -89 50 -264 150 -380 218 -14 8
-131 76 -260 150 -129 75 -242 141 -250 146 -25 16 -242 140 -300 172 -30 16
-59 33 -65 37 -5 4 -68 41 -140 82 -71 41 -206 119 -300 173 -93 54 -183 105
-200 115 -16 9 -52 30 -80 47 -27 16 -57 33 -65 37 -8 4 -31 17 -52 29 -38 23
-144 85 -238 138 -30 17 -127 73 -215 124 -420 244 -526 305 -535 305 -6 0
-10 3 -10 8 0 4 -10 12 -23 18 -12 5 -130 72 -262 148 -132 76 -242 140 -245
142 -3 1 -28 -10 -55 -25z"/>
</g>
</svg>
