<svg width="30" height="30" viewBox="0 0 30 30" fill="none" xmlns="http://www.w3.org/2000/svg">
<path d="M27.8087 11.4726C27.7119 11.1653 27.5253 10.8939 27.2731 10.6934C27.0208 10.4929 26.7143 10.3725 26.393 10.3476L19.4251 9.74531C19.3829 9.74116 19.3427 9.72568 19.3087 9.70051C19.2746 9.67534 19.248 9.64141 19.2317 9.60234L16.5094 3.11484C16.3834 2.81889 16.1731 2.56653 15.9047 2.38915C15.6363 2.21177 15.3218 2.1172 15.0001 2.1172C14.6784 2.1172 14.3638 2.21177 14.0954 2.38915C13.8271 2.56653 13.6168 2.81889 13.4907 3.11484L10.7684 9.60234C10.7521 9.64141 10.7255 9.67534 10.6915 9.70051C10.6574 9.72568 10.6172 9.74116 10.5751 9.74531L3.6071 10.3476C3.28582 10.3725 2.97934 10.4929 2.72706 10.6934C2.47478 10.8939 2.28826 11.1653 2.19147 11.4726C2.08897 11.7804 2.08001 12.1117 2.16574 12.4246C2.25147 12.7375 2.42803 13.0179 2.67311 13.2305L7.95944 17.8418C7.99181 17.8705 8.01585 17.9075 8.02905 17.9487C8.04224 17.9899 8.04411 18.034 8.03444 18.0762L6.44538 24.9328C6.3713 25.2485 6.39244 25.579 6.50611 25.8827C6.61978 26.1864 6.8209 26.4496 7.08405 26.6391C7.34312 26.8302 7.65355 26.9393 7.97525 26.9523C8.29694 26.9652 8.61514 26.8814 8.88874 26.7117L14.8782 23.0789C14.9134 23.0571 14.954 23.0456 14.9954 23.0456C15.0368 23.0456 15.0774 23.0571 15.1126 23.0789L21.102 26.7117C21.3785 26.881 21.6988 26.9645 22.0227 26.9519C22.3466 26.9392 22.6595 26.8309 22.9219 26.6406C23.1843 26.4503 23.3844 26.1865 23.4971 25.8826C23.6097 25.5786 23.6298 25.2481 23.5548 24.9328L21.9704 18.0738C21.9607 18.0316 21.9626 17.9876 21.9758 17.9464C21.989 17.9051 22.013 17.8682 22.0454 17.8394L27.3317 13.2281C27.5755 13.0152 27.7509 12.7349 27.8358 12.4225C27.9206 12.1102 27.9112 11.7797 27.8087 11.4726ZM26.4024 12.1664L21.1161 16.7777C20.8908 16.9737 20.7233 17.2275 20.6317 17.5116C20.54 17.7958 20.5276 18.0995 20.5958 18.3902L22.1801 25.2492C22.1919 25.2953 22.1893 25.3439 22.1727 25.3884C22.1562 25.433 22.1265 25.4715 22.0876 25.4988C22.0523 25.527 22.009 25.5433 21.9639 25.5452C21.9188 25.5471 21.8743 25.5345 21.8368 25.5094L15.8473 21.8766C15.592 21.7213 15.2989 21.6393 15.0001 21.6393C14.7012 21.6393 14.4082 21.7213 14.1528 21.8766L8.16335 25.5094C8.12586 25.5345 8.08133 25.5471 8.03623 25.5452C7.99113 25.5433 7.9478 25.527 7.91257 25.4988C7.87364 25.4715 7.84393 25.433 7.8274 25.3884C7.81086 25.3439 7.80828 25.2953 7.81999 25.2492L9.40436 18.3902C9.47257 18.0995 9.46017 17.7958 9.36848 17.5116C9.27679 17.2275 9.1093 16.9737 8.88405 16.7777L3.59772 12.1664C3.56157 12.1357 3.5356 12.0947 3.52326 12.0488C3.51091 12.003 3.51277 11.9545 3.52858 11.9098C3.54042 11.8652 3.56608 11.8255 3.60187 11.7965C3.63767 11.7674 3.68176 11.7505 3.7278 11.748L10.6969 11.1457C10.9953 11.1203 11.281 11.0137 11.5231 10.8375C11.7652 10.6613 11.9545 10.4222 12.0704 10.1461L14.7926 3.65859C14.8116 3.61832 14.8416 3.58428 14.8791 3.56043C14.9167 3.53658 14.9603 3.52392 15.0048 3.52392C15.0492 3.52392 15.0928 3.53658 15.1304 3.56043C15.1679 3.58428 15.1979 3.61832 15.2169 3.65859L17.9298 10.1461C18.0453 10.4215 18.2338 10.6602 18.475 10.8363C18.7163 11.0125 19.001 11.1195 19.2985 11.1457L26.2676 11.748C26.3137 11.7505 26.3578 11.7674 26.3936 11.7965C26.4294 11.8255 26.455 11.8652 26.4669 11.9098C26.4832 11.954 26.4858 12.0023 26.4743 12.048C26.4628 12.0938 26.4378 12.1351 26.4024 12.1664Z" fill="black"/>
</svg>
