<svg width="20" height="20" viewBox="0 0 20 20" fill="none" xmlns="http://www.w3.org/2000/svg">
<path d="M16.4749 6.025L16.4833 6.01667L13.3833 2.91667L12.4999 3.8L14.2583 5.55833C13.4749 5.85833 12.9166 6.60833 12.9166 7.5C12.9166 7.77359 12.9705 8.0445 13.0752 8.29726C13.1799 8.55002 13.3333 8.77968 13.5268 8.97314C13.9175 9.36384 14.4474 9.58333 14.9999 9.58333C15.2999 9.58333 15.5749 9.51667 15.8333 9.40833V15.4167C15.8333 15.6377 15.7455 15.8496 15.5892 16.0059C15.4329 16.1622 15.2209 16.25 14.9999 16.25C14.7789 16.25 14.5669 16.1622 14.4107 16.0059C14.2544 15.8496 14.1666 15.6377 14.1666 15.4167V11.6667C14.1666 11.2246 13.991 10.8007 13.6784 10.4882C13.3659 10.1756 12.9419 10 12.4999 10H11.6666V4.16667C11.6666 3.72464 11.491 3.30072 11.1784 2.98816C10.8659 2.67559 10.4419 2.5 9.99992 2.5H4.99992C4.55789 2.5 4.13397 2.67559 3.82141 2.98816C3.50885 3.30072 3.33325 3.72464 3.33325 4.16667V17.5H11.6666V11.25H12.9166V15.4167C12.9166 15.9692 13.1361 16.4991 13.5268 16.8898C13.9175 17.2805 14.4474 17.5 14.9999 17.5C15.2735 17.5 15.5444 17.4461 15.7972 17.3414C16.0499 17.2367 16.2796 17.0833 16.4731 16.8898C16.6665 16.6964 16.82 16.4667 16.9247 16.2139C17.0294 15.9612 17.0833 15.6903 17.0833 15.4167V7.5C17.0833 6.925 16.8499 6.4 16.4749 6.025ZM9.99992 11.25V15.8333H4.99992V10H9.99992V11.25ZM9.99992 8.33333H4.99992V4.16667H9.99992V8.33333ZM14.9999 8.33333C14.7789 8.33333 14.5669 8.24554 14.4107 8.08926C14.2544 7.93297 14.1666 7.72101 14.1666 7.5C14.1666 7.27899 14.2544 7.06702 14.4107 6.91074C14.5669 6.75446 14.7789 6.66667 14.9999 6.66667C15.2209 6.66667 15.4329 6.75446 15.5892 6.91074C15.7455 7.06702 15.8333 7.27899 15.8333 7.5C15.8333 7.72101 15.7455 7.93297 15.5892 8.08926C15.4329 8.24554 15.2209 8.33333 14.9999 8.33333Z" fill="#101828"/>
</svg>
